<?xml version="1.0" encoding="UTF-8"?>
<!DOCTYPE svg PUBLIC "-//W3C//DTD SVG 1.1//EN" "http://www.w3.org/Graphics/SVG/1.1/DTD/svg11.dtd">
<svg xmlns="http://www.w3.org/2000/svg" version="1.1" width="120px" height="120px" style="shape-rendering:geometricPrecision; text-rendering:geometricPrecision; image-rendering:optimizeQuality; fill-rule:evenodd; clip-rule:evenodd" xmlns:xlink="http://www.w3.org/1999/xlink">
<g><path style="opacity:1" fill="#5a181f" d="M 93.5,31.5 C 93.5,31.1667 93.5,30.8333 93.5,30.5C 97.2693,30.244 100.936,30.5773 104.5,31.5C 104.5,31.8333 104.5,32.1667 104.5,32.5C 103.29,32.9321 102.29,33.5987 101.5,34.5C 98.5,34.5 95.5,34.5 92.5,34.5C 93.6085,33.71 94.9419,33.21 96.5,33C 95.4734,32.4867 94.4734,31.9867 93.5,31.5 Z"/></g>
<g><path style="opacity:1" fill="#53141f" d="M 93.5,31.5 C 94.4734,31.9867 95.4734,32.4867 96.5,33C 94.9419,33.21 93.6085,33.71 92.5,34.5C 87.3425,33.162 87.6758,32.162 93.5,31.5 Z"/></g>
<g><path style="opacity:0.443" fill="#76221b" d="M 104.5,32.5 C 104.5,32.1667 104.5,31.8333 104.5,31.5C 106.674,31.7497 108.341,32.7497 109.5,34.5C 108.833,34.5 108.167,34.5 107.5,34.5C 106.71,33.5987 105.71,32.9321 104.5,32.5 Z"/></g>
<g><path style="opacity:1" fill="#6b1e1d" d="M 93.5,30.5 C 93.5,30.8333 93.5,31.1667 93.5,31.5C 87.6758,32.162 87.3425,33.162 92.5,34.5C 95.5,34.5 98.5,34.5 101.5,34.5C 102.492,34.3284 103.158,34.6618 103.5,35.5C 98.1203,35.3243 92.787,35.6576 87.5,36.5C 88.6736,34.6322 88.0069,33.6322 85.5,33.5C 87.6174,31.3455 90.284,30.3455 93.5,30.5 Z"/></g>
<g><path style="opacity:1" fill="#53151f" d="M 104.5,32.5 C 105.71,32.9321 106.71,33.5987 107.5,34.5C 106.432,35.4345 105.099,35.7678 103.5,35.5C 103.158,34.6618 102.492,34.3284 101.5,34.5C 102.29,33.5987 103.29,32.9321 104.5,32.5 Z"/></g>
<g><path style="opacity:1" fill="#531520" d="M 85.5,33.5 C 88.0069,33.6322 88.6736,34.6322 87.5,36.5C 83.3601,37.0443 82.6935,36.0443 85.5,33.5 Z"/></g>
<g><path style="opacity:1" fill="#5d181d" d="M 44.5,35.5 C 43.8333,36.1667 43.1667,36.8333 42.5,37.5C 41.6909,39.2922 41.1909,41.2922 41,43.5C 40.5034,41.1902 40.3367,38.8568 40.5,36.5C 41.5383,34.4805 42.8716,34.1472 44.5,35.5 Z"/></g>
<g><path style="opacity:1" fill="#5a171f" d="M 107.5,34.5 C 108.167,34.5 108.833,34.5 109.5,34.5C 111.354,37.8367 110.687,38.8367 107.5,37.5C 105.847,37.3404 104.514,36.6737 103.5,35.5C 105.099,35.7678 106.432,35.4345 107.5,34.5 Z"/></g>
<g><path style="opacity:1" fill="#6c1d1a" d="M 44.5,35.5 C 46.1667,36.5 47.5,37.8333 48.5,39.5C 48.5,40.1667 48.1667,40.5 47.5,40.5C 46.078,39.075 44.4113,38.075 42.5,37.5C 43.1667,36.8333 43.8333,36.1667 44.5,35.5 Z"/></g>
<g><path style="opacity:1" fill="#661c1c" d="M 85.5,33.5 C 82.6935,36.0443 83.3601,37.0443 87.5,36.5C 86.5,38.1667 85.1667,39.5 83.5,40.5C 82.9383,36.9316 81.605,36.5983 79.5,39.5C 80.5,36.5 82.5,34.5 85.5,33.5 Z"/></g>
<g><path style="opacity:1" fill="#631a1d" d="M 109.5,34.5 C 112.243,36.2393 114.243,38.5726 115.5,41.5C 114.577,40.6971 113.577,40.5304 112.5,41C 113.337,42.0113 113.67,43.1779 113.5,44.5C 111.529,42.1918 109.529,39.8585 107.5,37.5C 110.687,38.8367 111.354,37.8367 109.5,34.5 Z"/></g>
<g><path style="opacity:1" fill="#59171f" d="M 83.5,40.5 C 83.6716,41.4916 83.3382,42.1583 82.5,42.5C 81.8333,42.8333 81.1667,43.1667 80.5,43.5C 79.7659,42.2921 79.4326,40.9587 79.5,39.5C 81.605,36.5983 82.9383,36.9316 83.5,40.5 Z"/></g>
<g><path style="opacity:1" fill="#51131f" d="M 115.5,41.5 C 117.182,47.6799 117.848,54.0133 117.5,60.5C 116.662,60.1583 116.328,59.4916 116.5,58.5C 117.09,53.3599 116.09,48.6932 113.5,44.5C 113.67,43.1779 113.337,42.0113 112.5,41C 113.577,40.5304 114.577,40.6971 115.5,41.5 Z"/></g>
<g><path style="opacity:0.184" fill="#78241b" d="M 48.5,39.5 C 50.0542,40.9142 51.3875,42.5808 52.5,44.5C 51.9984,45.521 51.3317,45.6877 50.5,45C 49.6138,43.3853 48.6138,41.8853 47.5,40.5C 48.1667,40.5 48.5,40.1667 48.5,39.5 Z"/></g>
<g><path style="opacity:0.965" fill="#671c1c" d="M 93.5,42.5 C 97.4811,41.9961 100.481,43.3294 102.5,46.5C 101.662,46.8417 101.328,47.5084 101.5,48.5C 99.7226,45.6109 97.0559,44.2776 93.5,44.5C 93.5,43.8333 93.5,43.1667 93.5,42.5 Z"/></g>
<g><path style="opacity:0.157" fill="#7a241b" d="M 93.5,42.5 C 93.5,43.1667 93.5,43.8333 93.5,44.5C 90.8484,45.1515 89.1818,46.8182 88.5,49.5C 87.2671,45.3671 88.9338,43.0337 93.5,42.5 Z"/></g>
<g><path style="opacity:1" fill="#70201b" d="M 40.5,36.5 C 40.3367,38.8568 40.5034,41.1902 41,43.5C 41.1909,41.2922 41.6909,39.2922 42.5,37.5C 42.6646,40.5184 42.498,43.5184 42,46.5C 41.2917,47.3805 40.4584,48.0472 39.5,48.5C 39.1583,47.6618 38.4916,47.3284 37.5,47.5C 38.4293,46.6851 39.4293,45.8518 40.5,45C 39.1834,42.0635 39.1834,39.2301 40.5,36.5 Z"/></g>
<g><path style="opacity:0.161" fill="#79241b" d="M 70.5,50.5 C 69.2931,50.3784 68.6264,51.3784 68.5,53.5C 67.236,51.7299 65.736,50.0632 64,48.5C 63.3333,47.8333 63.3333,47.1667 64,46.5C 65.5122,47.2567 66.8455,48.2567 68,49.5C 68.9799,47.9411 69.8133,46.2744 70.5,44.5C 71.7928,46.6365 71.7928,48.6365 70.5,50.5 Z"/></g>
<g><path style="opacity:0.778" fill="#6a1f1e" d="M 79.5,39.5 C 79.4326,40.9587 79.7659,42.2921 80.5,43.5C 78.1163,44.4251 77.1163,46.2585 77.5,49C 77.5419,50.9674 78.0419,52.8008 79,54.5C 79.7172,53.9558 80.2172,53.2891 80.5,52.5C 80.8333,52.5 81.1667,52.5 81.5,52.5C 82.1098,53.391 82.4431,54.391 82.5,55.5C 80.8212,55.2852 79.8212,55.9519 79.5,57.5C 75.5682,51.5291 75.5682,45.5291 79.5,39.5 Z"/></g>
<g><path style="opacity:1" fill="#6b1e1c" d="M 102.5,46.5 C 105.222,49.1174 105.889,52.1174 104.5,55.5C 104.477,53.0733 103.977,50.74 103,48.5C 102.517,49.448 102.351,50.448 102.5,51.5C 101.596,50.791 101.263,49.791 101.5,48.5C 101.328,47.5084 101.662,46.8417 102.5,46.5 Z"/></g>
<g><path style="opacity:0.706" fill="#6f221e" d="M 82.5,42.5 C 81.6758,45.7644 81.3424,49.0977 81.5,52.5C 81.1667,52.5 80.8333,52.5 80.5,52.5C 80.5,49.5 80.5,46.5 80.5,43.5C 81.1667,43.1667 81.8333,42.8333 82.5,42.5 Z"/></g>
<g><path style="opacity:1" fill="#661b1b" d="M 37.5,47.5 C 38.4916,47.3284 39.1583,47.6618 39.5,48.5C 37.8058,49.5274 36.4725,50.8608 35.5,52.5C 35.5,51.8333 35.1667,51.5 34.5,51.5C 34.7376,49.5956 35.7376,48.2623 37.5,47.5 Z"/></g>
<g><path style="opacity:1" fill="#54161f" d="M 80.5,43.5 C 80.5,46.5 80.5,49.5 80.5,52.5C 80.2172,53.2891 79.7172,53.9558 79,54.5C 78.0419,52.8008 77.5419,50.9674 77.5,49C 77.1163,46.2585 78.1163,44.4251 80.5,43.5 Z"/></g>
<g><path style="opacity:1" fill="#57151d" d="M 104.5,55.5 C 104.5,55.8333 104.5,56.1667 104.5,56.5C 102.824,55.8166 102.157,54.4832 102.5,52.5C 102.5,52.1667 102.5,51.8333 102.5,51.5C 102.351,50.448 102.517,49.448 103,48.5C 103.977,50.74 104.477,53.0733 104.5,55.5 Z"/></g>
<g><path style="opacity:0.878" fill="#5f191c" d="M 34.5,51.5 C 35.1667,51.5 35.5,51.8333 35.5,52.5C 35.1667,53.8333 34.8333,55.1667 34.5,56.5C 33.5269,58.9479 33.1936,61.6146 33.5,64.5C 32.5233,61.7131 32.19,58.7131 32.5,55.5C 32.2291,53.6203 32.8958,52.287 34.5,51.5 Z"/></g>
<g><path style="opacity:0.993" fill="#5f191d" d="M 70.5,50.5 C 70.5,51.1667 70.5,51.8333 70.5,52.5C 70.7678,54.099 70.4345,55.4324 69.5,56.5C 68.596,55.791 68.2627,54.791 68.5,53.5C 68.6264,51.3784 69.2931,50.3784 70.5,50.5 Z"/></g>
<g><path style="opacity:0.949" fill="#641b1d" d="M 115.5,41.5 C 116.558,42.6002 117.392,43.9336 118,45.5C 118.818,51.3487 118.652,57.0154 117.5,62.5C 117.5,61.8333 117.5,61.1667 117.5,60.5C 117.848,54.0133 117.182,47.6799 115.5,41.5 Z"/></g>
<g><path style="opacity:1" fill="#53151f" d="M 82.5,55.5 C 82.3678,58.0069 81.3678,58.6736 79.5,57.5C 79.8212,55.9519 80.8212,55.2852 82.5,55.5 Z"/></g>
<g><path style="opacity:1" fill="#681c1c" d="M 102.5,52.5 C 102.157,54.4832 102.824,55.8166 104.5,56.5C 104.262,58.4044 103.262,59.7377 101.5,60.5C 101.631,59.7611 101.464,59.0944 101,58.5C 99.8904,60.0368 98.3904,60.7035 96.5,60.5C 99.6909,58.6533 101.691,55.9866 102.5,52.5 Z"/></g>
<g><path style="opacity:0.779" fill="#70201b" d="M 59.5,54.5 C 60.3764,54.3691 61.0431,54.7025 61.5,55.5C 61.1128,58.2061 60.1128,60.5395 58.5,62.5C 57.5219,59.7325 57.8553,57.0658 59.5,54.5 Z"/></g>
<g><path style="opacity:0.58" fill="#71201a" d="M 113.5,44.5 C 116.09,48.6932 117.09,53.3599 116.5,58.5C 116.167,58.5 115.833,58.5 115.5,58.5C 115.221,53.7732 114.554,49.1065 113.5,44.5 Z"/></g>
<g><path style="opacity:1" fill="#631b1d" d="M 82.5,55.5 C 83.4013,56.2905 84.0679,57.2905 84.5,58.5C 82.1638,59.5939 82.1638,60.9272 84.5,62.5C 81.8333,61.8333 80.1667,60.1667 79.5,57.5C 81.3678,58.6736 82.3678,58.0069 82.5,55.5 Z"/></g>
<g><path style="opacity:0.125" fill="#7d271d" d="M 34.5,56.5 C 34.2739,59.2492 34.6072,61.9159 35.5,64.5C 35.0431,65.2975 34.3764,65.6309 33.5,65.5C 33.5,65.1667 33.5,64.8333 33.5,64.5C 33.1936,61.6146 33.5269,58.9479 34.5,56.5 Z"/></g>
<g><path style="opacity:1" fill="#651b1d" d="M 70.5,52.5 C 71.8662,56.2373 73.5328,59.904 75.5,63.5C 74.0755,61.9689 73.4088,62.3023 73.5,64.5C 71.127,62.4208 69.7936,59.7541 69.5,56.5C 70.4345,55.4324 70.7678,54.099 70.5,52.5 Z"/></g>
<g><path style="opacity:0.133" fill="#7a261d" d="M 84.5,58.5 C 88.3005,60.1432 92.3005,60.8099 96.5,60.5C 96.5,61.1667 96.1667,61.5 95.5,61.5C 92.8127,61.6641 90.146,61.4974 87.5,61C 86.0577,60.6232 85.0577,59.7899 84.5,58.5 Z"/></g>
<g><path style="opacity:1" fill="#631b1d" d="M 115.5,58.5 C 115.833,58.5 116.167,58.5 116.5,58.5C 116.328,59.4916 116.662,60.1583 117.5,60.5C 117.5,61.1667 117.5,61.8333 117.5,62.5C 117.672,63.4916 117.338,64.1583 116.5,64.5C 115.075,66.0311 114.409,65.6977 114.5,63.5C 114.216,61.5853 114.549,59.9187 115.5,58.5 Z"/></g>
<g><path style="opacity:0.588" fill="#681b1b" d="M 32.5,55.5 C 32.19,58.7131 32.5233,61.7131 33.5,64.5C 33.5,64.8333 33.5,65.1667 33.5,65.5C 31.7837,67.0248 29.7837,68.0248 27.5,68.5C 26.4937,68.0623 26.4937,67.3957 27.5,66.5C 28.2613,65.6091 29.2613,64.9424 30.5,64.5C 31.1674,61.3583 31.834,58.3583 32.5,55.5 Z"/></g>
<g><path style="opacity:1" fill="#551620" d="M 84.5,58.5 C 85.0577,59.7899 86.0577,60.6232 87.5,61C 90.146,61.4974 92.8127,61.6641 95.5,61.5C 93.8333,62.1667 92.1667,62.8333 90.5,63.5C 88.4352,63.4828 86.4352,63.1495 84.5,62.5C 82.1638,60.9272 82.1638,59.5939 84.5,58.5 Z"/></g>
<g><path style="opacity:1" fill="#53141e" d="M 101.5,60.5 C 101.167,61.5 100.5,62.1667 99.5,62.5C 98.391,62.5569 97.391,62.8902 96.5,63.5C 94.5,63.5 92.5,63.5 90.5,63.5C 92.1667,62.8333 93.8333,62.1667 95.5,61.5C 96.1667,61.5 96.5,61.1667 96.5,60.5C 98.3904,60.7035 99.8904,60.0368 101,58.5C 101.464,59.0944 101.631,59.7611 101.5,60.5 Z"/></g>
<g><path style="opacity:1" fill="#671d1d" d="M 84.5,62.5 C 86.4352,63.1495 88.4352,63.4828 90.5,63.5C 92.5,63.5 94.5,63.5 96.5,63.5C 96.5,63.8333 96.5,64.1667 96.5,64.5C 92.0298,66.0032 88.0298,65.3365 84.5,62.5 Z"/></g>
<g><path style="opacity:0.016" fill="#7b251b" d="M 99.5,62.5 C 99.0269,63.9063 98.0269,64.573 96.5,64.5C 96.5,64.1667 96.5,63.8333 96.5,63.5C 97.391,62.8902 98.391,62.5569 99.5,62.5 Z"/></g>
<g><path style="opacity:0.035" fill="#77221b" d="M 73.5,64.5 C 74.9063,64.9731 75.573,65.9731 75.5,67.5C 74.0937,67.0269 73.427,66.0269 73.5,64.5 Z"/></g>
<g><path style="opacity:1" fill="#5d181d" d="M 75.5,63.5 C 77.9295,65.9449 80.5962,67.9449 83.5,69.5C 82.209,69.2627 81.209,69.596 80.5,70.5C 80.1667,70.5 79.8333,70.5 79.5,70.5C 77.7697,69.9744 76.4363,68.9744 75.5,67.5C 75.573,65.9731 74.9063,64.9731 73.5,64.5C 73.4088,62.3023 74.0755,61.9689 75.5,63.5 Z"/></g>
<g><path style="opacity:0.963" fill="#691d1c" d="M 114.5,63.5 C 114.409,65.6977 115.075,66.0311 116.5,64.5C 116.155,67.1979 114.822,69.1979 112.5,70.5C 112.5,69.8333 112.167,69.5 111.5,69.5C 112.514,67.4261 113.514,65.4261 114.5,63.5 Z"/></g>
<g><path style="opacity:0.216" fill="#74221c" d="M 62.5,65.5 C 63.5,65.5 64.5,65.5 65.5,65.5C 65.7521,68.9318 64.4188,69.9318 61.5,68.5C 62.1272,67.5832 62.4606,66.5832 62.5,65.5 Z"/></g>
<g><path style="opacity:0.765" fill="#71201c" d="M 27.5,66.5 C 26.4937,67.3957 26.4937,68.0623 27.5,68.5C 27.1667,69.1667 26.8333,69.8333 26.5,70.5C 25.0755,68.9689 24.4088,69.3023 24.5,71.5C 23.1789,68.7647 24.1789,67.0981 27.5,66.5 Z"/></g>
<g><path style="opacity:1" fill="#72201a" d="M 56.5,66.5 C 57.525,66.8966 57.6917,67.5632 57,68.5C 55,70.5 53,72.5 51,74.5C 51.5624,71.0659 53.3957,68.3992 56.5,66.5 Z"/></g>
<g><path style="opacity:0.369" fill="#72211a" d="M 71.5,68.5 C 70.8333,69.1667 70.1667,69.8333 69.5,70.5C 69.2148,68.712 69.5481,67.0453 70.5,65.5C 71.3857,66.325 71.719,67.325 71.5,68.5 Z"/></g>
<g><path style="opacity:0.937" fill="#6d1e1b" d="M 26.5,70.5 C 29.1631,71.7521 31.8298,72.7521 34.5,73.5C 34.8333,74.1667 35.1667,74.8333 35.5,75.5C 32.8344,75.067 30.1677,74.567 27.5,74C 26.0577,73.6232 25.0577,72.7899 24.5,71.5C 24.4088,69.3023 25.0755,68.9689 26.5,70.5 Z"/></g>
<g><path style="opacity:0.62" fill="#76241c" d="M 71.5,68.5 C 73.0389,69.7671 74.7056,70.7671 76.5,71.5C 74.8333,71.5 73.1667,71.5 71.5,71.5C 71.5,70.5 71.5,69.5 71.5,68.5 Z"/></g>
<g><path style="opacity:0.008" fill="#79241b" d="M 79.5,70.5 C 79.8333,70.5 80.1667,70.5 80.5,70.5C 81.1667,70.5 81.5,70.8333 81.5,71.5C 80.8333,71.5 80.5,71.8333 80.5,72.5C 79.1667,72.5 77.8333,72.5 76.5,72.5C 76.5,72.1667 76.5,71.8333 76.5,71.5C 77.791,71.7373 78.791,71.404 79.5,70.5 Z"/></g>
<g><path style="opacity:0.706" fill="#73211b" d="M 97.5,71.5 C 97.1583,70.6618 96.4916,70.3284 95.5,70.5C 97.2905,69.6087 99.1239,68.6087 101,67.5C 101.124,69.7406 99.9575,71.0739 97.5,71.5 Z"/></g>
<g><path style="opacity:0.065" fill="#7c261c" d="M 38.5,75.5 C 37.5,75.1667 36.8333,74.5 36.5,73.5C 38.166,72.3336 39.8327,72.3336 41.5,73.5C 40.3984,74.1757 39.3984,74.8423 38.5,75.5 Z"/></g>
<g><path style="opacity:1" fill="#5b1920" d="M 71.5,68.5 C 71.5,69.5 71.5,70.5 71.5,71.5C 73.1667,71.5 74.8333,71.5 76.5,71.5C 76.5,71.8333 76.5,72.1667 76.5,72.5C 75.1667,72.5 74.5,73.1667 74.5,74.5C 73.1667,74.1667 71.8333,73.8333 70.5,73.5C 69.7611,73.631 69.0944,73.4643 68.5,73C 69.2524,72.3292 69.5858,71.4959 69.5,70.5C 70.1667,69.8333 70.8333,69.1667 71.5,68.5 Z"/></g>
<g><path style="opacity:1" fill="#59171e" d="M 76.5,72.5 C 77.8333,72.5 79.1667,72.5 80.5,72.5C 80.5,73.1667 80.8333,73.5 81.5,73.5C 81.5,73.8333 81.5,74.1667 81.5,74.5C 81.1667,74.5 80.8333,74.5 80.5,74.5C 80.1667,74.5 79.8333,74.5 79.5,74.5C 79.44,73.9569 79.1067,73.6236 78.5,73.5C 77.2528,75.0064 77.2528,76.5064 78.5,78C 77.5842,78.2784 76.9175,78.7784 76.5,79.5C 75.8333,79.5 75.1667,79.5 74.5,79.5C 74.5,79.1667 74.5,78.8333 74.5,78.5C 74.5,77.1667 74.5,75.8333 74.5,74.5C 74.5,73.1667 75.1667,72.5 76.5,72.5 Z"/></g>
<g><path style="opacity:1" fill="#5b181e" d="M 80.5,70.5 C 81.209,69.596 82.209,69.2627 83.5,69.5C 84.4916,69.3284 85.1583,69.6618 85.5,70.5C 87.8333,71.1667 90.1667,71.8333 92.5,72.5C 88.8455,72.9422 85.1788,73.2756 81.5,73.5C 80.8333,73.5 80.5,73.1667 80.5,72.5C 81.1667,72.5 81.5,72.1667 81.5,71.5C 81.5,70.8333 81.1667,70.5 80.5,70.5 Z"/></g>
<g><path style="opacity:1" fill="#651b1b" d="M 85.5,70.5 C 88.8333,70.5 92.1667,70.5 95.5,70.5C 96.4916,70.3284 97.1583,70.6618 97.5,71.5C 96.4863,72.6737 95.153,73.3404 93.5,73.5C 93.1667,73.5 92.8333,73.5 92.5,73.5C 92.5,73.1667 92.5,72.8333 92.5,72.5C 90.1667,71.8333 87.8333,71.1667 85.5,70.5 Z"/></g>
<g><path style="opacity:1" fill="#62191b" d="M 111.5,69.5 C 112.167,69.5 112.5,69.8333 112.5,70.5C 111.167,72.5 109.5,74.1667 107.5,75.5C 106.508,75.6716 105.842,75.3382 105.5,74.5C 107.475,72.863 109.475,71.1964 111.5,69.5 Z"/></g>
<g><path style="opacity:1" fill="#681f20" d="M 69.5,70.5 C 69.5858,71.4959 69.2524,72.3292 68.5,73C 69.0944,73.4643 69.7611,73.631 70.5,73.5C 69.7095,74.4013 68.7095,75.0679 67.5,75.5C 66.6618,75.1583 66.3284,74.4916 66.5,73.5C 67.1667,72.1667 68.1667,71.1667 69.5,70.5 Z"/></g>
<g><path style="opacity:1" fill="#541620" d="M 92.5,72.5 C 92.5,72.8333 92.5,73.1667 92.5,73.5C 88.8815,74.2436 85.2148,74.577 81.5,74.5C 81.5,74.1667 81.5,73.8333 81.5,73.5C 85.1788,73.2756 88.8455,72.9422 92.5,72.5 Z"/></g>
<g><path style="opacity:0.749" fill="#74241e" d="M 92.5,73.5 C 92.8333,73.5 93.1667,73.5 93.5,73.5C 91.1524,74.9517 88.4857,75.6183 85.5,75.5C 83.6307,75.4932 81.964,75.1599 80.5,74.5C 80.8333,74.5 81.1667,74.5 81.5,74.5C 85.2148,74.577 88.8815,74.2436 92.5,73.5 Z"/></g>
<g><path style="opacity:1" fill="#691f1f" d="M 66.5,73.5 C 66.3284,74.4916 66.6618,75.1583 67.5,75.5C 66.5,77.1667 65.1667,78.5 63.5,79.5C 63.1583,78.6618 62.4916,78.3284 61.5,78.5C 63.4032,77.0527 65.0699,75.386 66.5,73.5 Z"/></g>
<g><path style="opacity:0.255" fill="#74221c" d="M 15.5,76.5 C 15.5,76.1667 15.5,75.8333 15.5,75.5C 19.4268,75.9257 23.0935,76.9257 26.5,78.5C 22.7512,78.2494 19.0845,77.5828 15.5,76.5 Z"/></g>
<g><path style="opacity:0.729" fill="#651b1b" d="M 34.5,73.5 C 35.1667,73.5 35.8333,73.5 36.5,73.5C 36.8333,74.5 37.5,75.1667 38.5,75.5C 39.1667,75.8333 39.8333,76.1667 40.5,76.5C 40.5,77.1667 40.5,77.8333 40.5,78.5C 38.326,78.2503 36.6594,77.2503 35.5,75.5C 35.1667,74.8333 34.8333,74.1667 34.5,73.5 Z"/></g>
<g><path style="opacity:0.739" fill="#6d211f" d="M 15.5,75.5 C 15.5,75.8333 15.5,76.1667 15.5,76.5C 12.8127,76.3359 10.146,76.5026 7.5,77C 11.7361,77.3349 15.7361,78.1682 19.5,79.5C 15.8212,79.2756 12.1545,78.9422 8.5,78.5C 6.82124,78.7148 5.82124,78.0481 5.5,76.5C 8.72797,75.5863 12.0613,75.2529 15.5,75.5 Z"/></g>
<g><path style="opacity:1" fill="#52131e" d="M 15.5,76.5 C 19.0845,77.5828 22.7512,78.2494 26.5,78.5C 26.8333,78.5 27.1667,78.5 27.5,78.5C 27.5,78.8333 27.5,79.1667 27.5,79.5C 26.5,79.5 25.5,79.5 24.5,79.5C 23.1667,79.5 21.8333,79.5 20.5,79.5C 20.1667,79.5 19.8333,79.5 19.5,79.5C 15.7361,78.1682 11.7361,77.3349 7.5,77C 10.146,76.5026 12.8127,76.3359 15.5,76.5 Z"/></g>
<g><path style="opacity:0.174" fill="#7a251c" d="M 40.5,76.5 C 42.896,77.3005 45.2293,78.3005 47.5,79.5C 44.9335,80.606 42.6002,80.2727 40.5,78.5C 40.5,77.8333 40.5,77.1667 40.5,76.5 Z"/></g>
<g><path style="opacity:0.898" fill="#772b26" d="M 71.5,77.5 C 70.8333,78.5 70.1667,79.5 69.5,80.5C 69.4606,79.4168 69.1272,78.4168 68.5,77.5C 69.6136,76.2241 70.6136,76.2241 71.5,77.5 Z"/></g>
<g><path style="opacity:0.043" fill="#7a2921" d="M 71.5,77.5 C 72.609,77.5569 73.609,77.8902 74.5,78.5C 74.5,78.8333 74.5,79.1667 74.5,79.5C 73.8333,79.5 73.1667,79.5 72.5,79.5C 72.1667,78.8333 71.8333,78.1667 71.5,77.5 Z"/></g>
<g><path style="opacity:1" fill="#611a1e" d="M 79.5,74.5 C 79.0618,74.4346 78.7284,74.6012 78.5,75C 80.2331,76.1889 81.8998,77.3556 83.5,78.5C 82.448,78.3505 81.448,78.5172 80.5,79C 82.1749,79.9853 83.8415,80.8186 85.5,81.5C 83.3792,81.6747 81.3792,81.3414 79.5,80.5C 78.791,79.596 77.791,79.2627 76.5,79.5C 76.9175,78.7784 77.5842,78.2784 78.5,78C 77.2528,76.5064 77.2528,75.0064 78.5,73.5C 79.1067,73.6236 79.44,73.9569 79.5,74.5 Z"/></g>
<g><path style="opacity:0.69" fill="#73211a" d="M 5.5,76.5 C 5.82124,78.0481 6.82124,78.7148 8.5,78.5C 5.65528,79.3438 2.65528,80.0104 -0.5,80.5C -0.5,79.8333 -0.5,79.1667 -0.5,78.5C 1.5,77.8333 3.5,77.1667 5.5,76.5 Z"/></g>
<g><path style="opacity:0.78" fill="#71201c" d="M 27.5,79.5 C 27.5,79.1667 27.5,78.8333 27.5,78.5C 32.6589,79.9974 37.6589,81.6641 42.5,83.5C 41.5,83.5 40.5,83.5 39.5,83.5C 35.4214,82.3627 31.4214,81.0294 27.5,79.5 Z"/></g>
<g><path style="opacity:1" fill="#621d20" d="M 61.5,78.5 C 62.4916,78.3284 63.1583,78.6618 63.5,79.5C 63.1583,80.3382 62.4916,80.6716 61.5,80.5C 59.4352,80.5172 57.4352,80.8505 55.5,81.5C 55.5,80.8333 55.5,80.1667 55.5,79.5C 57.3792,78.6586 59.3792,78.3253 61.5,78.5 Z"/></g>
<g><path style="opacity:1" fill="#55141d" d="M 83.5,78.5 C 83.8333,78.5 84.1667,78.5 84.5,78.5C 88.3123,79.3238 92.3123,79.8238 96.5,80C 94.9336,80.6082 93.6002,81.4415 92.5,82.5C 90.4352,82.4828 88.4352,82.1495 86.5,81.5C 86.1667,81.5 85.8333,81.5 85.5,81.5C 83.8415,80.8186 82.1749,79.9853 80.5,79C 81.448,78.5172 82.448,78.3505 83.5,78.5 Z"/></g>
<g><path style="opacity:0.918" fill="#6d1e1b" d="M 105.5,74.5 C 105.842,75.3382 106.508,75.6716 107.5,75.5C 103.026,78.7782 98.0264,81.1115 92.5,82.5C 93.6002,81.4415 94.9336,80.6082 96.5,80C 92.3123,79.8238 88.3123,79.3238 84.5,78.5C 92.0587,79.4732 99.0587,78.1399 105.5,74.5 Z"/></g>
<g><path style="opacity:1" fill="#6a1d1b" d="M 20.5,79.5 C 21.8333,79.5 23.1667,79.5 24.5,79.5C 28.0825,81.3604 31.7492,83.0271 35.5,84.5C 30.085,83.8062 25.085,82.1395 20.5,79.5 Z"/></g>
<g><path style="opacity:1" fill="#50131f" d="M 24.5,79.5 C 25.5,79.5 26.5,79.5 27.5,79.5C 31.4214,81.0294 35.4214,82.3627 39.5,83.5C 39.5,83.8333 39.5,84.1667 39.5,84.5C 38.1667,84.5 36.8333,84.5 35.5,84.5C 31.7492,83.0271 28.0825,81.3604 24.5,79.5 Z"/></g>
<g><path style="opacity:0.788" fill="#71201a" d="M 55.5,79.5 C 55.5,80.1667 55.5,80.8333 55.5,81.5C 48.8333,80.8333 48.8333,80.1667 55.5,79.5 Z"/></g>
<g><path style="opacity:1" fill="#5b181e" d="M 72.5,79.5 C 73.1667,79.5 73.8333,79.5 74.5,79.5C 75.1667,79.5 75.8333,79.5 76.5,79.5C 76.5,80.1667 76.5,80.8333 76.5,81.5C 75.713,83.1042 74.3797,83.7709 72.5,83.5C 72.1667,83.5 71.8333,83.5 71.5,83.5C 72.2625,82.7321 73.2625,82.2321 74.5,82C 73.376,81.7508 72.376,81.2508 71.5,80.5C 71.6236,79.8933 71.9569,79.56 72.5,79.5 Z"/></g>
<g><path style="opacity:0.067" fill="#7c251b" d="M 76.5,79.5 C 77.791,79.2627 78.791,79.596 79.5,80.5C 78.391,80.5569 77.391,80.8902 76.5,81.5C 76.5,80.8333 76.5,80.1667 76.5,79.5 Z"/></g>
<g><path style="opacity:1" fill="#53151f" d="M 71.5,77.5 C 71.8333,78.1667 72.1667,78.8333 72.5,79.5C 71.9569,79.56 71.6236,79.8933 71.5,80.5C 72.376,81.2508 73.376,81.7508 74.5,82C 73.2625,82.2321 72.2625,82.7321 71.5,83.5C 69.8008,83.6602 68.1341,83.4935 66.5,83C 67.9423,82.6232 68.9423,81.7899 69.5,80.5C 70.1667,79.5 70.8333,78.5 71.5,77.5 Z"/></g>
<g><path style="opacity:0.463" fill="#792821" d="M 61.5,80.5 C 61.0825,81.2216 60.4158,81.7216 59.5,82C 60.7932,82.49 62.1266,82.6567 63.5,82.5C 63.5,83.1667 63.5,83.8333 63.5,84.5C 60.3511,84.5848 57.6845,83.5848 55.5,81.5C 57.4352,80.8505 59.4352,80.5172 61.5,80.5 Z"/></g>
<g><path style="opacity:0.706" fill="#72231f" d="M 69.5,80.5 C 68.9423,81.7899 67.9423,82.6232 66.5,83C 68.1341,83.4935 69.8008,83.6602 71.5,83.5C 71.8333,83.5 72.1667,83.5 72.5,83.5C 72.5,84.1667 72.8333,84.5 73.5,84.5C 72.791,85.404 71.791,85.7373 70.5,85.5C 70.1667,85.5 69.8333,85.5 69.5,85.5C 67.7354,84.5386 65.7354,84.2053 63.5,84.5C 63.5,83.8333 63.5,83.1667 63.5,82.5C 65.5,81.8333 67.5,81.1667 69.5,80.5 Z"/></g>
<g><path style="opacity:0.771" fill="#6f201c" d="M 86.5,81.5 C 88.4352,82.1495 90.4352,82.4828 92.5,82.5C 90.8984,84.0739 88.8984,84.7406 86.5,84.5C 85.4324,83.5655 84.099,83.2322 82.5,83.5C 83.8333,82.8333 85.1667,82.1667 86.5,81.5 Z"/></g>
<g><path style="opacity:1" fill="#5b171e" d="M 39.5,83.5 C 40.5,83.5 41.5,83.5 42.5,83.5C 47.2526,83.8434 51.9193,84.51 56.5,85.5C 59.6414,86.3213 62.9748,86.8213 66.5,87C 60.1754,87.4995 53.8421,87.6662 47.5,87.5C 45.5853,87.7845 43.9187,87.4511 42.5,86.5C 41.5,85.8333 40.5,85.1667 39.5,84.5C 39.5,84.1667 39.5,83.8333 39.5,83.5 Z"/></g>
<g><path style="opacity:1" fill="#60191c" d="M 82.5,83.5 C 84.099,83.2322 85.4324,83.5655 86.5,84.5C 83.3209,85.7934 79.9876,86.4601 76.5,86.5C 74.2646,86.7947 72.2646,86.4614 70.5,85.5C 71.791,85.7373 72.791,85.404 73.5,84.5C 76.4552,83.8413 79.4552,83.5079 82.5,83.5 Z"/></g>
<g><path style="opacity:0.745" fill="#6e1e1b" d="M 35.5,84.5 C 36.8333,84.5 38.1667,84.5 39.5,84.5C 40.5,85.1667 41.5,85.8333 42.5,86.5C 39.8478,86.5905 37.5145,85.9238 35.5,84.5 Z"/></g>
<g><path style="opacity:1" fill="#671c1c" d="M 56.5,85.5 C 60.8333,85.5 65.1667,85.5 69.5,85.5C 69.8333,85.5 70.1667,85.5 70.5,85.5C 72.2646,86.4614 74.2646,86.7947 76.5,86.5C 70.9077,87.9925 65.0744,88.6592 59,88.5C 54.9848,88.4988 51.1515,88.1655 47.5,87.5C 53.8421,87.6662 60.1754,87.4995 66.5,87C 62.9748,86.8213 59.6414,86.3213 56.5,85.5 Z"/></g>
</svg>
