<?xml version="1.0" encoding="utf-8"?>
<!DOCTYPE svg PUBLIC "-//W3C//DTD SVG 20010904//EN" "http://www.w3.org/TR/2001/REC-SVG-20010904/DTD/svg10.dtd">
<svg version="1.0" xmlns="http://www.w3.org/2000/svg" width="505pt" height="246pt" viewBox="0 0 505 246" style="" preserveAspectRatio="xMidYMid meet">
<g fill="#7C261CFF" stroke="#7C261CFF">
<path d="M 395.000 1.173 C 393.075 1.706 389.700 2.612 387.500 3.185 C 363.160 9.531 341.074 30.294 333.449 54.000 C 332.476 57.025 330.806 60.686 329.737 62.136 C 327.047 65.783 326.023 80.860 328.236 84.237 C 329.068 85.507 330.725 90.314 331.919 94.919 C 337.016 114.581 348.437 129.382 365.000 137.789 C 373.581 142.145 384.471 145.000 392.500 145.000 C 400.587 145.000 411.812 142.047 419.383 137.929 C 453.439 119.405 455.166 71.139 422.324 55.771 C 416.730 53.153 414.572 52.697 407.634 52.665 C 400.470 52.631 398.692 53.014 392.723 55.877 C 387.769 58.253 384.885 60.470 382.005 64.113 C 379.838 66.854 377.938 69.815 377.783 70.693 C 377.627 71.572 378.363 70.987 379.417 69.395 C 381.990 65.510 385.460 62.592 390.727 59.883 C 394.427 57.980 395.592 57.802 398.300 58.721 C 401.751 59.894 409.772 59.877 411.688 58.693 C 415.278 56.474 430.396 67.798 433.134 74.758 C 436.088 82.263 437.063 90.400 435.861 97.500 C 433.197 113.226 424.823 123.163 409.325 128.987 C 405.221 130.529 384.711 130.504 380.626 128.952 C 366.780 123.690 357.591 115.916 352.313 105.000 C 348.273 96.642 347.856 93.876 349.474 86.124 C 350.949 79.058 350.595 72.961 348.459 68.642 C 347.472 66.646 347.340 65.233 348.023 63.958 C 348.560 62.953 349.000 61.196 349.000 60.052 C 349.000 58.909 349.412 57.191 349.916 56.236 C 350.420 55.281 351.545 52.857 352.416 50.849 C 354.889 45.149 362.589 35.499 368.302 30.939 C 374.158 26.266 382.309 21.988 389.000 20.077 C 391.475 19.370 394.552 18.380 395.838 17.877 C 397.285 17.311 403.301 17.389 411.615 18.082 C 421.391 18.896 425.414 18.901 426.378 18.101 C 427.245 17.381 428.706 17.306 430.602 17.884 C 432.196 18.369 435.525 19.371 438.000 20.109 C 444.098 21.928 453.080 26.329 458.244 30.027 C 469.787 38.294 481.504 52.891 485.915 64.500 C 487.169 67.800 488.567 71.400 489.022 72.500 C 491.545 78.600 493.453 92.386 493.450 104.500 C 493.447 120.688 491.775 130.534 487.000 142.500 C 486.561 143.600 485.619 146.075 484.907 148.000 C 478.121 166.346 458.490 183.659 426.500 199.510 C 415.930 204.747 414.757 204.991 392.275 206.622 C 382.323 207.344 367.628 205.855 360.000 203.353 C 348.136 199.461 335.121 190.361 336.473 186.901 C 337.388 184.560 346.135 185.564 353.000 188.798 C 360.145 192.165 368.216 192.398 372.518 189.363 C 375.165 187.495 380.204 186.104 390.759 184.328 C 392.552 184.026 394.266 183.379 394.568 182.890 C 394.871 182.400 395.779 182.000 396.587 182.000 C 401.406 182.000 420.668 170.290 427.000 163.511 L 429.500 160.834 424.500 163.342 C 421.750 164.721 415.900 167.117 411.500 168.665 C 404.052 171.285 402.426 171.480 387.927 171.490 C 372.604 171.500 372.287 171.456 368.198 168.750 C 365.676 167.081 362.683 166.000 360.583 166.000 C 357.061 166.000 348.476 161.914 342.000 157.155 C 326.375 145.675 310.633 123.334 305.249 105.000 C 301.971 93.834 301.290 79.626 303.380 66.000 C 303.675 64.075 303.662 63.400 303.351 64.500 C 303.039 65.600 302.464 66.950 302.073 67.500 C 301.681 68.050 300.782 70.525 300.076 73.000 C 299.370 75.475 298.389 78.534 297.896 79.797 C 297.403 81.060 297.000 83.423 297.000 85.047 C 297.000 87.005 296.495 88.000 295.500 88.000 C 294.675 88.000 293.990 87.663 293.977 87.250 C 293.910 85.075 280.025 73.000 277.592 73.000 C 276.818 73.000 285.339 80.772 286.250 80.897 C 286.663 80.954 286.723 81.000 286.385 81.000 C 286.047 81.000 286.576 82.231 287.562 83.735 C 290.816 88.701 294.548 96.430 295.898 101.000 C 296.630 103.475 297.575 106.400 298.000 107.500 C 298.425 108.600 299.325 111.525 300.000 114.000 C 306.642 138.340 325.007 161.247 345.344 170.557 C 350.432 172.887 350.832 173.297 349.730 175.060 C 348.280 177.382 345.804 177.474 336.500 175.550 C 332.650 174.754 324.408 173.067 318.185 171.801 L 306.870 169.500 307.447 166.566 C 307.795 164.793 307.134 160.834 305.776 156.566 L 303.528 149.500 302.828 153.500 C 300.860 164.746 299.228 167.832 288.975 179.698 C 276.427 194.220 271.894 198.370 264.999 201.648 C 254.584 206.598 251.285 207.428 249.424 205.567 C 246.966 203.109 241.731 203.593 238.968 206.534 C 237.129 208.492 235.963 208.931 233.843 208.465 C 232.333 208.134 228.952 208.185 226.329 208.578 C 221.977 209.230 221.776 209.376 224.030 210.238 C 225.388 210.757 228.521 211.484 230.992 211.852 C 234.610 212.392 235.748 213.073 236.841 215.354 C 238.576 218.974 243.949 221.350 247.419 220.031 C 249.253 219.334 250.959 219.511 253.717 220.688 C 262.939 224.620 271.559 226.231 286.000 226.719 C 301.527 227.244 308.875 226.099 317.440 221.817 C 321.789 219.643 328.979 213.273 329.032 211.547 C 329.049 210.971 329.704 209.654 330.487 208.620 C 331.826 206.851 332.193 206.830 336.705 208.260 C 339.342 209.096 343.975 210.336 347.000 211.015 C 350.025 211.694 353.805 212.643 355.399 213.125 C 356.994 213.606 359.919 214.005 361.899 214.011 C 369.098 214.033 373.000 215.137 373.000 217.152 C 373.000 219.346 370.803 220.358 362.500 221.986 C 359.200 222.633 354.700 223.546 352.500 224.014 C 346.037 225.391 333.156 227.518 319.500 229.463 C 286.007 234.235 224.835 233.795 216.934 228.725 C 215.232 227.633 212.244 227.196 207.000 227.271 C 202.875 227.329 197.250 226.821 194.500 226.142 C 184.078 223.566 169.366 219.793 166.000 218.833 C 164.075 218.285 161.257 217.596 159.738 217.302 C 158.219 217.009 156.729 216.371 156.429 215.885 C 156.128 215.398 154.810 215.000 153.500 215.000 C 152.190 215.000 150.840 214.550 150.500 214.000 C 150.160 213.450 148.810 213.000 147.500 213.000 C 146.190 213.000 144.840 212.550 144.500 212.000 C 144.160 211.450 142.810 211.000 141.500 211.000 C 140.190 211.000 138.840 210.550 138.500 210.000 C 138.160 209.450 136.810 209.000 135.500 209.000 C 134.190 209.000 132.840 208.550 132.500 208.000 C 132.160 207.450 130.810 207.000 129.500 207.000 C 128.190 207.000 126.840 206.550 126.500 206.000 C 126.160 205.450 124.810 205.000 123.500 205.000 C 122.190 205.000 120.840 204.550 120.500 204.000 C 120.160 203.450 118.810 203.000 117.500 203.000 C 116.190 203.000 114.840 202.550 114.500 202.000 C 114.160 201.450 112.810 201.000 111.500 201.000 C 110.190 201.000 108.840 200.550 108.500 200.000 C 108.160 199.450 106.585 199.000 105.000 199.000 C 103.415 199.000 101.840 198.550 101.500 198.000 C 101.160 197.450 99.805 197.000 98.488 197.000 C 97.171 197.000 95.060 196.593 93.797 196.095 C 91.200 195.073 84.023 193.648 73.000 191.968 C 68.875 191.339 64.372 190.228 62.993 189.499 C 60.133 187.987 51.945 187.373 47.500 188.337 C 45.850 188.695 41.633 189.189 38.128 189.434 C 31.655 189.887 27.000 192.497 27.000 195.674 C 27.000 196.403 26.506 197.000 25.902 197.000 C 23.733 197.000 8.427 205.048 5.000 207.990 C 3.075 209.643 1.087 210.996 0.583 210.998 C 0.079 210.999 -0.086 211.247 0.216 211.549 C 0.518 211.851 3.405 210.828 6.633 209.275 C 9.860 207.722 14.525 205.872 17.000 205.164 C 19.475 204.456 22.799 203.470 24.387 202.974 C 26.690 202.253 27.799 202.484 29.871 204.113 C 32.299 206.023 33.311 206.110 45.484 205.459 C 52.643 205.076 60.017 204.141 61.872 203.381 C 65.790 201.776 70.092 201.619 74.429 202.923 C 76.118 203.431 79.975 204.376 83.000 205.023 C 88.450 206.189 104.649 211.267 108.500 213.016 C 120.498 218.466 172.076 233.442 191.000 236.971 C 193.475 237.432 197.295 238.154 199.490 238.575 C 201.717 239.002 204.247 240.315 205.217 241.549 C 207.695 244.699 211.788 245.238 216.176 242.991 C 219.405 241.338 220.665 241.236 226.546 242.152 C 234.275 243.355 280.103 242.608 292.500 241.077 C 306.966 239.290 315.420 238.120 321.000 237.133 C 324.025 236.599 329.200 235.705 332.500 235.147 C 342.745 233.416 357.869 229.992 370.267 226.596 C 374.850 225.341 376.903 225.241 380.267 226.108 C 383.919 227.050 385.144 226.908 389.195 225.077 C 391.777 223.910 394.754 221.856 395.810 220.514 C 396.867 219.171 400.379 217.117 403.615 215.948 C 409.413 213.856 410.573 213.379 420.500 209.011 C 430.886 204.441 436.631 201.538 440.680 198.813 C 442.979 197.266 445.148 196.000 445.500 196.000 C 445.852 196.000 448.102 194.650 450.500 193.000 C 452.898 191.350 455.229 189.999 455.680 189.999 C 456.131 189.998 457.697 188.986 459.160 187.749 C 460.623 186.512 463.575 184.066 465.720 182.314 C 485.346 166.280 498.313 143.829 503.920 116.174 C 505.325 109.245 505.311 86.375 503.899 80.264 C 499.437 60.965 496.177 52.841 487.929 40.476 C 474.565 20.440 455.144 7.538 428.736 1.152 C 423.067 -0.219 399.974 -0.204 395.000 1.173 M 310.500 182.000 C 310.840 182.550 311.763 183.000 312.551 183.000 C 314.688 183.000 318.921 187.032 320.684 190.746 C 322.001 193.522 322.038 194.507 320.931 197.258 C 319.283 201.352 316.985 205.000 316.054 205.000 C 315.660 205.000 314.794 203.988 314.129 202.750 C 311.784 198.387 306.616 196.000 299.514 196.000 C 292.071 196.000 290.694 197.765 296.500 199.864 C 299.480 200.941 300.000 201.592 300.000 204.245 C 300.000 206.663 298.963 208.326 295.361 211.680 C 292.810 214.056 289.885 216.000 288.861 216.000 C 287.838 216.000 287.000 216.450 287.000 217.000 C 287.000 217.550 285.902 218.000 284.559 218.000 C 283.216 218.000 281.840 218.450 281.500 219.000 C 280.735 220.237 261.636 220.337 259.236 219.117 C 258.281 218.631 256.263 217.655 254.750 216.948 C 250.909 215.152 251.324 214.000 255.812 214.000 C 262.955 214.000 275.943 205.723 283.518 196.343 C 288.922 189.652 292.749 186.314 297.514 184.134 C 299.156 183.383 301.175 182.397 302.000 181.943 C 304.128 180.772 309.765 180.810 310.500 182.000 "/></g>
<g fill="#591820FF" stroke="#591820FF">
<path d="M 396.333 2.486 C 394.592 3.227 392.938 3.605 392.658 3.325 C 391.983 2.650 385.183 4.828 377.000 8.341 C 375.625 8.931 373.713 10.065 372.750 10.862 C 371.788 11.658 371.000 11.998 371.000 11.618 C 371.000 10.059 358.117 19.687 353.000 25.069 C 343.232 35.344 339.186 41.960 334.696 55.000 C 329.289 70.705 329.218 81.258 334.400 99.000 C 340.060 118.376 355.272 133.847 375.500 140.800 C 383.397 143.514 395.571 144.459 401.712 142.833 C 411.382 140.274 413.824 139.409 418.383 136.929 C 434.140 128.359 445.000 111.153 445.000 94.761 C 445.000 72.847 428.226 54.094 408.284 53.715 C 401.206 53.580 397.000 54.465 397.000 56.088 C 397.000 56.641 400.773 56.928 406.000 56.770 C 410.950 56.622 415.000 56.753 415.000 57.063 C 415.000 57.372 417.151 58.565 419.780 59.713 C 428.329 63.445 435.704 73.419 436.630 82.500 C 436.854 84.700 437.479 86.650 438.019 86.833 C 438.558 87.017 439.000 89.181 439.000 91.642 C 439.000 94.371 438.610 95.877 438.000 95.500 C 437.437 95.152 436.919 96.108 436.815 97.691 C 436.714 99.236 436.562 101.400 436.479 102.500 C 436.196 106.231 431.722 114.143 426.933 119.383 C 422.449 124.289 418.096 127.055 410.091 130.084 C 405.773 131.718 384.043 131.633 379.656 129.964 C 365.737 124.670 356.717 117.018 351.052 105.698 C 347.077 97.756 347.066 97.696 346.180 79.687 C 345.660 69.135 345.810 65.285 346.813 63.377 C 347.536 62.004 347.933 60.345 347.696 59.690 C 347.459 59.036 347.845 57.375 348.554 56.000 C 349.714 53.751 351.131 50.322 351.447 49.000 C 352.447 44.819 368.743 27.000 371.567 27.000 C 372.355 27.000 373.000 26.633 373.000 26.184 C 373.000 25.206 382.884 20.576 388.500 18.922 C 390.700 18.274 393.534 17.352 394.797 16.872 C 397.801 15.732 427.851 15.741 431.601 16.883 C 433.195 17.369 436.525 18.370 439.000 19.107 C 445.155 20.940 456.023 26.338 458.708 28.896 C 459.923 30.053 461.302 31.000 461.774 31.000 C 463.455 31.000 476.070 44.610 480.313 51.000 C 482.686 54.575 485.650 60.200 486.899 63.500 C 488.149 66.800 489.748 70.625 490.453 72.000 C 491.158 73.375 491.540 75.038 491.303 75.695 C 491.065 76.352 491.376 77.834 491.995 78.990 C 492.613 80.145 493.271 83.331 493.458 86.070 C 493.644 88.809 494.207 91.601 494.710 92.275 C 495.840 93.792 495.780 115.011 494.640 116.808 C 494.183 117.528 493.690 120.478 493.544 123.365 C 493.397 126.251 492.747 129.605 492.098 130.818 C 491.449 132.030 491.014 133.580 491.132 134.261 C 491.250 134.943 490.762 136.850 490.048 138.500 C 488.636 141.765 487.888 143.658 485.898 149.000 C 483.078 156.569 477.256 164.832 469.176 172.732 C 464.525 177.279 460.336 181.000 459.867 181.000 C 459.399 181.000 457.868 182.013 456.465 183.250 C 452.308 186.918 439.293 194.622 427.156 200.598 C 416.533 205.829 415.272 206.207 407.309 206.550 C 402.633 206.751 398.265 207.365 397.604 207.914 C 396.162 209.111 377.967 209.056 376.399 207.849 C 375.793 207.384 372.643 206.856 369.399 206.676 C 366.155 206.497 362.517 205.821 361.316 205.175 C 360.114 204.529 358.624 204.000 358.003 204.000 C 357.382 204.000 353.899 202.565 350.263 200.812 C 342.594 197.113 334.000 189.430 334.000 186.273 C 334.000 184.267 334.432 184.146 340.750 184.398 C 344.463 184.545 348.850 185.236 350.500 185.933 C 354.403 187.581 377.879 186.813 379.000 185.001 C 379.439 184.289 380.610 184.059 381.825 184.445 C 383.012 184.821 385.218 184.422 386.979 183.511 C 388.673 182.635 390.483 182.180 391.001 182.501 C 391.519 182.821 393.081 182.338 394.472 181.427 C 395.862 180.515 397.000 180.063 397.000 180.420 C 397.000 180.778 398.013 180.508 399.250 179.821 C 400.488 179.133 401.725 178.526 402.000 178.470 C 403.688 178.131 413.899 172.595 415.892 170.938 C 418.287 168.947 418.174 166.824 415.774 168.723 C 415.073 169.278 413.375 169.977 412.000 170.277 C 410.625 170.577 408.600 171.035 407.500 171.293 C 401.383 172.733 395.440 173.287 386.500 173.252 C 373.671 173.201 365.918 171.321 353.000 165.130 C 343.758 160.701 339.365 157.504 330.928 149.070 C 325.029 143.174 321.762 139.054 314.327 128.138 C 309.241 120.671 304.096 107.775 302.504 98.508 C 302.127 96.312 301.574 94.119 301.274 93.635 C 300.975 93.151 300.776 88.647 300.833 83.627 L 300.936 74.500 299.562 79.500 C 298.806 82.250 298.033 85.625 297.844 87.000 C 297.557 89.082 297.036 89.446 294.725 89.175 L 291.950 88.850 293.771 92.175 C 294.773 94.004 296.180 97.525 296.899 100.000 C 297.617 102.475 298.822 105.674 299.576 107.110 C 300.330 108.545 300.698 109.969 300.393 110.274 C 300.088 110.579 300.417 111.880 301.124 113.164 C 301.831 114.449 302.301 116.219 302.168 117.097 C 302.035 117.975 302.613 119.264 303.452 119.960 C 304.291 120.657 304.770 121.563 304.516 121.974 C 304.034 122.755 309.132 133.314 312.495 138.500 C 318.766 148.170 328.861 160.000 330.842 160.000 C 331.215 160.000 332.641 161.013 334.010 162.251 C 335.380 163.490 340.888 166.678 346.250 169.336 C 356.052 174.195 357.691 176.025 354.006 177.997 C 351.720 179.220 339.651 177.992 330.255 175.580 C 327.090 174.768 323.375 173.893 322.000 173.637 C 320.625 173.382 317.366 172.682 314.758 172.084 C 312.149 171.485 309.674 171.049 309.258 171.116 C 306.492 171.557 305.842 170.773 306.054 167.250 C 306.392 161.629 306.109 159.815 305.000 160.500 C 304.450 160.840 303.971 160.304 303.937 159.309 C 303.887 157.900 303.666 158.018 302.935 159.842 C 302.418 161.131 302.229 162.562 302.514 163.023 C 302.799 163.484 302.587 164.137 302.043 164.473 C 301.499 164.810 300.358 166.550 299.509 168.340 C 298.660 170.130 294.710 175.252 290.732 179.723 C 286.755 184.193 281.796 189.891 279.714 192.386 C 276.415 196.339 265.071 204.500 262.875 204.500 C 262.449 204.500 261.573 205.027 260.928 205.672 C 260.284 206.316 259.171 206.619 258.456 206.345 C 257.741 206.070 256.109 206.410 254.828 207.099 C 253.548 207.788 249.575 208.509 246.000 208.702 C 242.425 208.895 239.350 209.491 239.167 210.026 C 238.983 210.562 238.083 211.028 237.167 211.061 C 236.250 211.095 238.613 212.670 242.418 214.561 C 250.058 218.359 252.840 218.985 249.015 216.046 C 245.772 213.555 246.727 212.792 253.611 212.371 C 259.299 212.023 267.000 209.365 267.000 207.749 C 267.000 207.272 267.412 207.137 267.916 207.448 C 268.420 207.759 270.220 206.626 271.916 204.930 C 273.612 203.234 275.029 202.218 275.063 202.673 C 275.098 203.128 275.544 202.459 276.055 201.186 C 276.565 199.913 277.406 199.133 277.922 199.452 C 278.439 199.771 279.125 199.606 279.447 199.085 C 279.769 198.564 279.463 197.776 278.766 197.334 C 277.803 196.723 277.859 196.527 279.000 196.515 C 279.825 196.507 280.500 195.900 280.500 195.167 C 280.500 194.433 280.756 194.090 281.069 194.403 C 281.382 194.716 284.464 192.250 287.918 188.922 C 291.371 185.595 293.850 183.464 293.426 184.186 C 293.003 184.909 293.655 184.623 294.876 183.552 C 296.097 182.480 297.817 181.497 298.698 181.368 C 299.579 181.239 300.659 180.552 301.098 179.841 C 302.231 178.009 310.220 178.129 311.632 180.000 C 312.254 180.825 312.929 181.275 313.132 181.000 C 313.334 180.725 314.175 181.070 315.000 181.766 C 315.825 182.462 317.625 183.962 319.000 185.100 C 320.375 186.238 321.556 187.580 321.625 188.084 C 321.694 188.588 321.806 189.450 321.875 190.000 C 321.944 190.550 322.675 191.000 323.500 191.000 C 325.536 191.000 325.483 196.354 323.430 198.058 C 322.567 198.774 322.066 200.146 322.317 201.105 C 322.612 202.233 322.318 202.676 321.488 202.357 C 320.781 202.086 319.862 202.414 319.447 203.086 C 318.924 203.932 319.124 204.062 320.095 203.507 C 320.868 203.067 320.474 203.702 319.219 204.920 C 316.939 207.134 313.302 207.366 313.723 205.271 C 314.058 203.609 306.995 197.788 305.391 198.403 C 304.626 198.697 303.998 198.614 303.995 198.219 C 303.992 197.823 302.096 197.391 299.782 197.257 C 295.721 197.023 295.652 197.068 297.788 198.564 C 299.004 199.416 300.000 199.831 300.000 199.485 C 300.000 198.433 302.480 201.455 302.785 202.879 C 302.942 203.611 302.549 204.838 301.913 205.605 C 301.276 206.372 301.031 207.000 301.368 207.000 C 301.989 207.000 300.329 209.151 296.250 213.632 C 295.013 214.991 294.000 215.800 294.000 215.429 C 294.000 215.058 293.330 215.311 292.511 215.991 C 291.692 216.671 291.328 217.738 291.703 218.363 C 292.112 219.045 291.760 218.995 290.825 218.238 C 289.563 217.216 289.051 217.234 288.141 218.330 C 287.523 219.075 287.351 220.041 287.759 220.477 C 288.166 220.914 287.514 220.758 286.309 220.132 C 284.465 219.173 283.887 219.324 282.655 221.083 C 281.474 222.768 280.810 222.969 279.223 222.119 C 277.947 221.437 276.136 221.387 274.070 221.980 C 272.319 222.482 270.349 222.731 269.693 222.533 C 266.247 221.493 261.967 221.138 262.459 221.934 C 264.396 225.068 298.014 227.032 305.437 224.445 C 307.672 223.666 310.087 223.023 310.805 223.015 C 315.823 222.959 324.658 216.115 328.576 209.250 C 330.645 205.626 332.002 205.366 338.215 207.408 C 342.808 208.916 355.889 211.978 360.000 212.507 C 361.375 212.683 365.749 213.143 369.719 213.529 C 375.621 214.101 377.050 214.582 377.552 216.163 C 378.213 218.246 376.323 221.318 374.916 220.448 C 374.445 220.157 372.682 220.630 371.000 221.500 C 369.318 222.370 367.524 222.824 367.015 222.509 C 366.505 222.194 364.445 222.623 362.438 223.462 C 360.430 224.300 358.375 224.732 357.870 224.420 C 357.365 224.108 354.973 224.609 352.553 225.533 C 350.133 226.457 347.721 226.946 347.193 226.619 C 346.665 226.293 344.078 226.674 341.446 227.466 C 338.813 228.259 336.314 228.694 335.893 228.434 C 335.472 228.174 333.187 228.455 330.814 229.059 C 328.441 229.663 324.475 230.303 322.000 230.482 C 319.525 230.662 316.375 231.096 315.000 231.447 C 313.625 231.798 309.125 232.256 305.000 232.465 C 300.875 232.674 293.900 233.191 289.500 233.614 C 279.175 234.607 249.796 234.560 239.500 233.534 C 235.100 233.095 230.150 232.742 228.500 232.748 C 226.850 232.754 222.350 232.170 218.500 231.450 C 207.950 229.477 201.668 228.563 200.000 228.758 C 199.175 228.855 196.783 228.266 194.684 227.449 C 192.585 226.632 190.496 226.194 190.040 226.475 C 189.585 226.756 187.570 226.300 185.562 225.462 C 183.555 224.623 181.529 224.173 181.060 224.463 C 180.592 224.752 178.956 224.340 177.426 223.546 C 175.895 222.752 174.287 222.323 173.851 222.592 C 173.415 222.861 171.682 222.370 170.000 221.500 C 168.318 220.630 166.517 220.180 165.999 220.501 C 165.481 220.821 163.995 220.388 162.698 219.538 C 161.401 218.688 160.053 218.281 159.701 218.632 C 159.350 218.983 157.884 218.499 156.444 217.556 C 155.005 216.612 153.564 216.103 153.243 216.424 C 152.922 216.744 151.572 216.294 150.243 215.424 C 148.914 214.553 147.564 214.103 147.243 214.424 C 146.922 214.744 145.572 214.294 144.243 213.424 C 142.914 212.553 141.564 212.103 141.243 212.424 C 140.922 212.744 139.599 212.312 138.302 211.462 C 137.005 210.612 135.478 210.205 134.909 210.556 C 134.340 210.908 133.000 210.405 131.931 209.437 C 130.862 208.470 129.689 207.978 129.324 208.343 C 128.958 208.708 127.572 208.294 126.243 207.424 C 124.914 206.553 123.564 206.103 123.243 206.424 C 122.922 206.744 121.572 206.294 120.243 205.424 C 118.914 204.553 117.564 204.103 117.243 204.424 C 116.922 204.744 115.575 204.296 114.249 203.428 C 112.923 202.559 111.233 202.080 110.492 202.365 C 109.752 202.649 108.594 202.216 107.920 201.404 C 107.246 200.591 105.975 200.046 105.097 200.193 C 104.219 200.339 102.111 199.881 100.412 199.175 C 98.714 198.469 96.914 198.012 96.412 198.158 C 95.911 198.305 94.470 197.854 93.211 197.156 C 91.952 196.458 90.152 196.014 89.211 196.169 C 88.270 196.324 86.989 196.129 86.365 195.737 C 84.629 194.647 72.498 192.883 62.852 192.318 C 53.099 191.748 39.451 193.713 29.258 197.156 C 24.734 198.684 23.263 199.578 24.191 200.233 C 25.080 200.860 24.609 201.014 22.726 200.712 C 19.726 200.232 17.930 201.652 20.358 202.584 C 21.175 202.898 22.849 202.616 24.077 201.959 C 29.326 199.150 65.654 199.171 75.500 201.988 C 77.150 202.460 80.975 203.376 84.000 204.023 C 89.663 205.235 105.950 210.369 109.500 212.061 C 112.928 213.695 144.868 223.886 148.783 224.594 C 150.827 224.965 153.738 225.894 155.250 226.659 C 156.763 227.425 158.000 227.838 158.000 227.577 C 158.000 227.316 159.518 227.736 161.373 228.511 C 163.228 229.287 164.959 229.708 165.219 229.447 C 165.480 229.187 167.280 229.637 169.219 230.447 C 171.159 231.258 172.990 231.677 173.287 231.379 C 173.585 231.082 174.735 231.323 175.843 231.916 C 176.951 232.509 179.453 233.198 181.403 233.448 C 183.353 233.698 185.895 234.409 187.052 235.028 C 188.209 235.647 189.840 235.892 190.676 235.571 C 191.512 235.250 194.211 235.671 196.672 236.507 C 199.134 237.343 201.556 237.775 202.054 237.467 C 202.552 237.159 205.106 237.636 207.730 238.528 C 210.913 239.610 213.935 239.935 216.812 239.504 C 219.748 239.065 221.633 239.280 222.716 240.179 C 223.948 241.202 230.423 241.500 251.404 241.500 C 266.307 241.500 280.300 241.097 282.500 240.605 C 284.700 240.113 288.750 239.762 291.500 239.825 C 294.250 239.887 298.075 239.417 300.000 238.779 C 301.925 238.141 306.280 237.562 309.678 237.492 C 313.077 237.421 316.558 236.782 317.415 236.070 C 318.312 235.326 320.012 235.037 321.418 235.390 C 322.762 235.727 325.130 235.507 326.681 234.901 C 328.231 234.294 331.690 233.630 334.367 233.424 C 337.045 233.218 339.851 232.538 340.605 231.913 C 341.358 231.288 342.680 231.047 343.543 231.378 C 344.406 231.709 346.692 231.320 348.624 230.513 C 350.555 229.706 352.443 229.120 352.818 229.210 C 354.377 229.588 362.707 227.658 365.343 226.308 C 366.907 225.507 368.415 225.082 368.696 225.362 C 368.976 225.643 370.397 225.398 371.853 224.818 C 373.309 224.238 375.850 223.604 377.500 223.409 C 383.994 222.641 387.385 221.794 389.491 220.414 C 390.700 219.622 395.471 217.610 400.094 215.943 C 404.717 214.276 409.850 212.304 411.500 211.561 C 413.150 210.819 416.750 209.221 419.500 208.011 C 429.886 203.441 435.631 200.538 439.680 197.813 C 441.979 196.266 444.229 194.987 444.680 194.972 C 445.131 194.957 447.268 193.607 449.428 191.972 C 451.589 190.337 453.929 189.000 454.628 189.000 C 455.328 189.000 456.359 188.213 456.920 187.250 C 457.481 186.288 457.960 185.950 457.985 186.500 C 458.015 187.162 458.279 187.159 458.765 186.494 C 459.169 185.940 462.425 183.015 466.000 179.994 C 469.575 176.972 473.237 173.600 474.137 172.500 C 475.038 171.400 477.197 168.925 478.935 167.000 C 488.334 156.590 497.813 137.742 501.063 123.000 C 501.731 119.975 502.632 116.024 503.066 114.219 C 504.214 109.451 504.055 86.343 502.838 81.036 C 498.518 62.204 495.240 54.071 486.900 41.500 C 483.101 35.774 473.532 25.328 467.662 20.500 C 461.638 15.545 445.378 6.649 443.954 7.528 C 443.505 7.806 442.881 7.617 442.567 7.109 C 442.046 6.266 438.023 4.930 427.698 2.171 C 421.990 0.646 400.142 0.865 396.333 2.486 "/></g>
<g fill="#7C261CFF" stroke="#7C261CFF">
<path d="M 178.687 24.053 C 174.414 29.045 173.561 34.593 175.084 47.500 C 175.668 52.450 176.358 58.300 176.617 60.500 C 177.073 64.379 176.936 64.598 172.055 67.750 C 169.288 69.538 166.681 71.000 166.262 71.000 C 165.843 71.000 162.496 74.170 158.823 78.045 C 151.088 86.205 146.153 95.105 142.405 107.652 C 140.064 115.489 139.763 118.185 139.772 131.250 L 139.781 146.000 137.450 146.000 C 136.167 146.000 134.840 146.450 134.500 147.000 C 134.160 147.550 133.221 148.000 132.413 148.000 C 131.604 148.000 127.693 149.545 123.722 151.433 C 116.482 154.875 111.567 159.155 109.058 164.200 C 105.637 171.080 114.320 178.615 130.500 182.809 C 132.700 183.379 138.325 184.386 143.000 185.047 C 148.154 185.776 152.287 186.931 153.500 187.982 C 160.471 194.019 171.989 200.223 181.500 203.062 C 183.700 203.718 186.534 204.648 187.797 205.128 C 189.060 205.608 193.335 205.931 197.297 205.848 L 204.500 205.695 198.500 205.024 C 188.531 203.909 180.516 200.443 169.539 192.500 C 165.665 189.697 164.009 187.826 164.005 186.250 C 164.000 184.204 164.475 183.999 169.250 183.985 C 172.138 183.976 175.096 183.592 175.824 183.130 C 176.567 182.659 173.758 182.508 169.416 182.787 C 161.215 183.313 145.038 181.675 136.156 179.418 C 125.831 176.795 115.000 170.700 115.000 167.513 C 115.000 165.508 120.232 161.412 130.500 155.377 C 136.000 152.145 141.625 148.934 143.000 148.242 C 147.226 146.116 151.712 142.077 149.893 142.036 C 148.599 142.007 148.195 140.489 147.822 134.250 C 147.327 125.965 148.213 113.102 149.741 106.403 C 151.301 99.563 158.053 87.103 163.325 81.335 C 168.650 75.509 175.934 70.000 178.314 70.000 C 180.599 70.000 181.130 66.655 181.648 49.000 C 181.913 39.925 182.606 31.263 183.187 29.750 C 185.323 24.185 192.841 27.117 203.388 37.628 C 208.416 42.639 215.996 52.300 216.005 53.707 C 216.008 54.143 217.117 55.850 218.469 57.500 C 220.875 60.435 221.861 59.683 220.126 56.236 C 219.645 55.281 218.231 52.475 216.983 50.000 C 213.797 43.678 207.512 35.290 202.000 30.000 C 193.678 22.015 190.372 20.000 185.591 20.000 C 182.813 20.000 181.492 20.775 178.687 24.053 "/></g>
<g fill="#591820FF" stroke="#591820FF">
<path d="M 175.112 67.694 C 174.534 68.687 174.047 69.132 174.030 68.682 C 174.014 68.232 172.693 68.794 171.096 69.932 C 169.498 71.069 167.784 72.000 167.287 72.000 C 166.098 72.000 153.310 85.787 151.520 89.000 C 149.231 93.106 145.777 100.336 145.568 101.456 C 145.462 102.030 144.563 105.200 143.571 108.500 C 141.640 114.926 140.653 122.734 140.855 130.000 C 140.923 132.475 140.992 137.518 141.007 141.206 L 141.035 147.912 144.545 145.841 C 146.818 144.500 147.760 143.371 147.217 142.635 C 145.888 140.832 146.456 111.864 147.872 109.229 C 148.543 107.980 148.815 106.510 148.476 105.962 C 147.346 104.133 157.120 86.030 162.293 80.370 C 167.815 74.327 174.947 69.000 177.514 69.000 C 178.423 69.000 178.989 68.466 178.771 67.813 C 178.112 65.837 176.227 65.776 175.112 67.694 "/></g>
<g fill="#591820FF" stroke="#591820FF">
<path d="M 181.693 22.500 C 179.625 24.039 176.524 29.176 176.287 31.455 C 176.170 32.580 175.781 34.967 175.422 36.759 C 175.018 38.780 175.237 40.581 175.999 41.498 C 176.785 42.446 176.984 44.272 176.552 46.573 C 176.181 48.550 176.194 51.592 176.580 53.334 C 177.209 56.166 177.375 56.289 178.154 54.500 C 178.704 53.236 178.821 54.769 178.472 58.666 C 178.168 62.058 178.336 65.090 178.845 65.404 C 179.986 66.109 180.816 57.043 180.942 42.500 C 181.074 27.260 182.110 25.210 189.307 25.957 C 191.881 26.225 199.750 31.717 204.846 36.803 C 207.237 39.189 209.375 40.958 209.599 40.735 C 210.170 40.163 195.076 25.000 193.936 25.000 C 193.421 25.000 193.000 24.475 193.000 23.833 C 193.000 23.192 192.704 22.963 192.342 23.325 C 191.980 23.687 191.058 23.463 190.294 22.829 C 188.542 21.375 183.465 21.181 181.693 22.500 "/></g>
<g fill="#591820FF" stroke="#591820FF">
<path d="M 135.000 148.008 C 132.894 149.101 127.600 151.189 127.000 151.164 C 126.725 151.152 125.825 151.753 125.000 152.500 C 124.175 153.247 123.275 153.858 123.000 153.858 C 119.926 153.864 110.716 160.920 111.249 162.860 C 111.346 163.212 110.880 164.481 110.214 165.681 C 109.224 167.466 109.289 168.146 110.573 169.431 C 111.437 170.294 111.816 171.000 111.416 171.000 C 111.017 171.000 111.476 171.868 112.436 172.929 C 114.369 175.065 121.004 178.562 122.375 178.168 C 122.856 178.030 124.028 178.620 124.978 179.480 C 126.173 180.562 127.388 180.792 128.914 180.228 C 130.888 179.497 130.560 179.163 125.810 177.064 C 111.031 170.532 110.422 165.531 123.490 158.000 C 138.512 149.343 139.340 148.770 137.929 148.005 C 137.143 147.579 135.825 147.580 135.000 148.008 "/></g>
<g fill="#7C261CFF" stroke="#7C261CFF">
<path d="M 256.574 107.458 C 255.877 111.171 255.491 112.220 253.156 116.736 C 251.548 119.848 251.663 130.475 253.320 131.850 C 254.375 132.726 255.065 131.200 256.768 124.223 C 259.601 112.621 260.083 107.495 258.540 105.386 C 257.432 103.870 257.202 104.112 256.574 107.458 "/></g>
<g fill="#591820FF" stroke="#591820FF">
<path d="M 142.000 182.741 C 142.000 183.927 149.199 185.245 151.291 184.442 C 152.089 184.136 152.999 184.555 153.313 185.373 C 154.065 187.333 168.791 197.247 169.917 196.551 C 170.398 196.254 171.077 196.759 171.428 197.673 C 171.833 198.729 172.414 198.986 173.021 198.379 C 173.629 197.771 171.980 195.980 168.494 193.461 C 163.677 189.981 162.453 188.128 162.835 184.889 C 162.875 184.553 159.891 183.990 156.204 183.636 C 152.517 183.283 147.813 182.712 145.750 182.366 C 143.492 181.988 142.000 182.137 142.000 182.741 "/></g>
<g fill="#7C261CFF" stroke="#7C261CFF">
<path d="M 240.446 157.962 C 238.055 158.926 228.000 169.651 228.000 171.236 C 228.000 171.827 226.830 173.846 225.399 175.721 C 223.968 177.597 223.006 179.339 223.260 179.593 C 224.137 180.470 234.096 170.722 239.061 164.127 C 244.045 157.509 244.291 156.412 240.446 157.962 "/></g>
<g fill="#7C261CFF" stroke="#7C261CFF">
<path d="M 270.500 154.413 C 269.001 157.940 268.075 161.313 268.444 161.909 C 269.574 163.737 274.915 160.246 276.693 156.517 C 278.191 153.376 278.187 152.934 276.633 150.562 C 275.709 149.153 274.565 148.000 274.089 148.000 C 273.614 148.000 271.999 150.886 270.500 154.413 M 275.397 156.199 C 274.072 158.761 270.313 161.646 269.439 160.772 C 269.225 160.558 270.254 157.810 271.725 154.665 C 274.280 149.205 274.456 149.048 275.608 151.202 C 276.573 153.005 276.531 154.006 275.397 156.199 "/></g>
<g fill="#591820FF" stroke="#591820FF">
<path d="M 256.647 113.183 C 256.177 115.758 255.200 118.093 254.474 118.371 C 253.540 118.730 253.255 120.509 253.497 124.474 C 253.685 127.552 254.038 129.717 254.281 129.285 C 255.577 126.986 257.270 117.877 257.402 112.500 L 257.500 108.500 256.647 113.183 "/></g>
<g fill="#591820FF" stroke="#591820FF">
<path d="M 271.341 155.667 C 269.413 159.824 269.407 160.000 271.180 160.000 C 273.227 160.000 277.103 154.432 276.375 152.536 C 275.444 150.110 273.299 151.443 271.341 155.667 "/></g>
</svg>
