<?xml version="1.0" encoding="iso-8859-1"?>
<!-- Generator: Adobe Illustrator 19.0.0, SVG Export Plug-In . SVG Version: 6.00 Build 0)  -->
<svg version="1.1" id="Layer_1" xmlns="http://www.w3.org/2000/svg" xmlns:xlink="http://www.w3.org/1999/xlink" x="0px" y="0px"
	 viewBox="0 0 512 512" style="enable-background:new 0 0 512 512;" xml:space="preserve">
<g>
  <path d="M332.8,460.8h-17.067c-4.71,0-8.533,3.823-8.533,8.533s3.823,8.533,8.533,8.533H332.8c4.71,0,8.533-3.823,8.533-8.533
    S337.51,460.8,332.8,460.8z"/>
  <path d="M264.533,460.8H179.2c-4.71,0-8.533,3.823-8.533,8.533s3.823,8.533,8.533,8.533h85.333c4.71,0,8.533-3.823,8.533-8.533
    S269.244,460.8,264.533,460.8z"/>
  <path d="M128,460.8H8.533c-4.71,0-8.533,3.823-8.533,8.533s3.823,8.533,8.533,8.533H128c4.71,0,8.533-3.823,8.533-8.533
    S132.71,460.8,128,460.8z"/>
  <path d="M500.966,249.967l-23.39-23.39L469.333,128c0-23.526-19.14-42.667-42.667-42.667h-59.733
    c-4.71,0-8.533,3.823-8.533,8.533s3.823,8.533,8.533,8.533h59.733c13.875,0,25.6,11.725,25.626,26.308l7.765,93.158H431.94
    l10.889-21.786c2.116-4.215,0.401-9.335-3.814-11.443c-4.224-2.116-9.344-0.401-11.452,3.814l-14.703,29.414h-45.926
    c-4.71,0-8.533,3.823-8.533,8.533c0,4.71,3.823,8.533,8.533,8.533h98.867l23.1,23.1c4.864,4.864,6.016,16.051,6.033,19.567v8.533
    H486.4c-4.71,0-8.533,3.823-8.533,8.533s3.823,8.533,8.533,8.533h8.533v68.267h-17.749c-4.156-28.902-29.013-51.2-59.051-51.2
    c-32.939,0-59.733,26.795-59.733,59.733s26.795,59.733,59.733,59.733c30.037,0,54.895-22.298,59.051-51.2h26.283
    c4.71,0,8.533-3.823,8.533-8.533V281.6C512,279.492,511.693,260.685,500.966,249.967z M418.133,426.667
    c-23.526,0-42.667-19.14-42.667-42.667s19.14-42.667,42.667-42.667c23.526,0,42.667,19.14,42.667,42.667
    S441.66,426.667,418.133,426.667z"/>
  <path d="M128,358.4c-14.114,0-25.6,11.486-25.6,25.6s11.486,25.6,25.6,25.6s25.6-11.486,25.6-25.6S142.114,358.4,128,358.4z
    M128,392.533c-4.702,0-8.533-3.831-8.533-8.533s3.831-8.533,8.533-8.533s8.533,3.831,8.533,8.533S132.702,392.533,128,392.533z"
    />
  <path d="M503.467,460.8H366.933c-4.71,0-8.533,3.823-8.533,8.533s3.823,8.533,8.533,8.533h136.533
    c4.71,0,8.533-3.823,8.533-8.533S508.177,460.8,503.467,460.8z"/>
  <path d="M418.133,358.4c-14.114,0-25.6,11.486-25.6,25.6s11.486,25.6,25.6,25.6s25.6-11.486,25.6-25.6
    S432.247,358.4,418.133,358.4z M418.133,392.533c-4.702,0-8.533-3.831-8.533-8.533s3.831-8.533,8.533-8.533
    s8.533,3.831,8.533,8.533S422.835,392.533,418.133,392.533z"/>
  <path d="M332.8,34.133H42.667C19.14,34.133,0,53.274,0,76.8v273.067c0,23.927,18.739,42.667,42.667,42.667
    c4.71,0,8.533-3.823,8.533-8.533s-3.823-8.533-8.533-8.533c-14.353,0-25.6-11.247-25.6-25.6V76.8c0-14.114,11.486-25.6,25.6-25.6
    h281.6v238.933h-281.6c-4.71,0-8.533,3.823-8.533,8.533s3.823,8.533,8.533,8.533h281.6v68.267H187.051
    c-4.156-28.902-29.022-51.2-59.051-51.2c-32.939,0-59.733,26.795-59.733,59.733S95.061,443.733,128,443.733
    c30.029,0,54.895-22.298,59.051-51.2H332.8c4.71,0,8.533-3.823,8.533-8.533V42.667C341.333,37.956,337.51,34.133,332.8,34.133z
    M128,426.667c-23.526,0-42.667-19.14-42.667-42.667s19.14-42.667,42.667-42.667c23.526,0,42.667,19.14,42.667,42.667
    S151.526,426.667,128,426.667z"/>
</g>
</svg>
