<?xml version="1.0" ?><svg height="256px" id="Layer_1" style="enable-background:new 0 0 256 256;" version="1.1" viewBox="0 0 256 256" width="256px" xml:space="preserve" xmlns="http://www.w3.org/2000/svg" xmlns:xlink="http://www.w3.org/1999/xlink"><style type="text/css">
	.st0{fill:none;stroke:#000000;stroke-width:4;stroke-linecap:round;stroke-linejoin:round;stroke-miterlimit:10;}
</style><path class="st0" d="M137.547,232.778c60.681-5.55,104.493-60.302,97.096-116.939c-7.222-55.297-60.168-93.947-114.839-88.571  c-55.424,5.449-99.709,54.979-95.462,110.772c7.153,87.164,91.909,96.916,95.528,95.623"/><path class="st0" d="M100.607,102.304c-0.31-2.259,6.768-4.733,13.114-5.671c11.549-1.707,21.221,3.19,21.974,6.025  c0.753,2.836-0.797,30.834,3.899,31.19c4.696,0.355,18.165-29.949,21.266-32.608c3.101-2.658,31.544-1.861,31.544,1.063  s-24.145,30.879-24.101,35.443c0.044,4.563,28,28.398,25.519,31.899c-2.481,3.5-32.271,3.64-33.671,2.481  c-1.4-1.159-12.626-18.031-18.43-17.013c-5.804,1.019-1.817,16.746-3.544,18.785s-11.608,1.595-19.494,0.355  c-41.911-7.886-67.076-70.443-64.86-73.721c2.215-3.278,27.912-1.595,30.481,0.355s12.671,38.633,24.101,35.443  c3.057-1.462,1.772-26.228,1.772-26.228"/></svg>