<svg width="48" height="48" viewBox="0 0 48 48" fill="none" xmlns="http://www.w3.org/2000/svg">
<path d="M20.9091 18C20.9091 16.2929 22.2929 14.9091 24 14.9091C25.7071 14.9091 27.0909 16.2929 27.0909 18C27.0909 19.7071 25.7071 21.0909 24 21.0909C22.2929 21.0909 20.9091 19.7071 20.9091 18Z" fill="#CCB26E"/>
<path fill-rule="evenodd" clip-rule="evenodd" d="M10 18C10 10.26 16.26 4 24 4C31.74 4 38 10.26 38 18C38 28.5 24 44 24 44C24 44 10 28.5 10 18ZM25 9C25 8.44771 24.5523 8 24 8C23.4477 8 23 8.44771 23 9V10.6364C23 11.1886 23.4477 11.6364 24 11.6364C24.5523 11.6364 25 11.1886 25 10.6364V9ZM18.3416 10.9274C17.9511 10.5369 17.3179 10.5369 16.9274 10.9274C16.5369 11.318 16.5369 11.9511 16.9274 12.3417L18.0892 13.5035C18.4798 13.894 19.1129 13.894 19.5034 13.5035C19.894 13.1129 19.894 12.4798 19.5034 12.0893L18.3416 10.9274ZM31.0725 12.3417C31.4631 11.9511 31.4631 11.318 31.0725 10.9274C30.682 10.5369 30.0489 10.5369 29.6583 10.9274L28.4965 12.0893C28.106 12.4798 28.106 13.1129 28.4965 13.5035C28.887 13.894 29.5202 13.894 29.9107 13.5035L31.0725 12.3417ZM24 12.9091C21.1884 12.9091 18.9091 15.1884 18.9091 18C18.9091 20.8116 21.1884 23.0909 24 23.0909C26.8116 23.0909 29.0909 20.8116 29.0909 18C29.0909 15.1884 26.8116 12.9091 24 12.9091ZM15 17C14.4477 17 14 17.4477 14 18C14 18.5523 14.4477 19 15 19H16.6364C17.1886 19 17.6364 18.5523 17.6364 18C17.6364 17.4477 17.1886 17 16.6364 17H15ZM31.3636 17C30.8114 17 30.3636 17.4477 30.3636 18C30.3636 18.5523 30.8114 19 31.3636 19H33C33.5523 19 34 18.5523 34 18C34 17.4477 33.5523 17 33 17H31.3636ZM19.5034 23.9108C19.894 23.5202 19.894 22.8871 19.5034 22.4965C19.1129 22.106 18.4798 22.106 18.0892 22.4965L16.9274 23.6584C16.5369 24.0489 16.5369 24.682 16.9274 25.0726C17.3179 25.4631 17.9511 25.4631 18.3416 25.0726L19.5034 23.9108ZM29.9107 22.4965C29.5202 22.106 28.887 22.106 28.4965 22.4965C28.106 22.8871 28.106 23.5202 28.4965 23.9108L29.6583 25.0726C30.0489 25.4631 30.682 25.4631 31.0725 25.0726C31.4631 24.682 31.4631 24.0489 31.0725 23.6584L29.9107 22.4965ZM25 25.3636C25 24.8114 24.5523 24.3636 24 24.3636C23.4477 24.3636 23 24.8114 23 25.3636V27C23 27.5523 23.4477 28 24 28C24.5523 28 25 27.5523 25 27V25.3636Z" fill="#CCB26E"/>
</svg>
